{
	"asset":{
		"version":"2.0",
		"generator":"Created using the official Cinema 4D glTF Exporter 1.000x284978"
	},
	"scenes":[{
		"nodes":[0,
		1]
	}],
	"nodes":[{
		"name":"Extrude.2",
		"mesh":0
	},
	{
		"name":"Extrude",
		"mesh":1,
		"children":[2,
		4]
	},
	{
		"name":"Rounding 1",
		"translation":[-13.206549644470215,
		0.3363671898841858,
		-0.1851540058851242],
		"rotation":[0.0,
		0.0,
		0.0,
		-1.0],
		"scale":[1.0,
		1.0,
		1.0],
		"mesh":2,
		"children":[3]
	},
	{
		"name":"Cap 1",
		"mesh":3
	},
	{
		"name":"Rounding 2",
		"translation":[-13.206549644470215,
		0.3363671898841858,
		-0.1851540058851242],
		"rotation":[0.0,
		0.0,
		0.0,
		-1.0],
		"scale":[1.0,
		1.0,
		1.0],
		"mesh":4,
		"children":[5]
	},
	{
		"name":"Cap 2",
		"mesh":5
	}],
	"meshes":[{
		"name":"Extrude.2",
		"primitives":[{
			"attributes":{
				"POSITION":1,
				"NORMAL":2,
				"TEXCOORD_0":3
			},
			"indices":0
		}]
	},
	{
		"name":"Extrude",
		"primitives":[{
			"attributes":{
				"POSITION":5,
				"NORMAL":6,
				"TEXCOORD_0":7
			},
			"indices":4,
			"material":0
		}]
	},
	{
		"name":"Rounding 1",
		"primitives":[{
			"attributes":{
				"POSITION":9,
				"NORMAL":10,
				"TEXCOORD_0":11
			},
			"indices":8,
			"material":0
		}]
	},
	{
		"name":"Cap 1",
		"primitives":[{
			"attributes":{
				"POSITION":13,
				"NORMAL":14,
				"TEXCOORD_0":15
			},
			"indices":12,
			"material":0
		}]
	},
	{
		"name":"Rounding 2",
		"primitives":[{
			"attributes":{
				"POSITION":17,
				"NORMAL":18,
				"TEXCOORD_0":19
			},
			"indices":16,
			"material":0
		}]
	},
	{
		"name":"Cap 2",
		"primitives":[{
			"attributes":{
				"POSITION":21,
				"NORMAL":22,
				"TEXCOORD_0":23
			},
			"indices":20,
			"material":0
		}]
	}],
	"accessors":[{
		"bufferView":0,
		"type":"SCALAR",
		"componentType":5123,
		"count":6300,
		"byteOffset":0,
		"min":[0],
		"max":[2109]
	},
	{
		"bufferView":1,
		"type":"VEC3",
		"componentType":5126,
		"count":2110,
		"byteOffset":0,
		"min":[-392.3172912597656,
		-190.83863830566407,
		-20.18515396118164],
		"max":[406.2018737792969,
		205.96401977539063,
		-0.1851540058851242]
	},
	{
		"bufferView":1,
		"type":"VEC3",
		"componentType":5126,
		"count":2110,
		"byteOffset":12,
		"min":[-1.0,
		-0.9999992847442627,
		-1.0],
		"max":[0.9999984502792358,
		0.9999999403953552,
		1.0]
	},
	{
		"bufferView":1,
		"type":"VEC2",
		"componentType":5126,
		"count":2110,
		"byteOffset":24,
		"min":[0.0,
		0.0],
		"max":[1.0,
		1.0]
	},
	{
		"bufferView":2,
		"type":"SCALAR",
		"componentType":5123,
		"count":5454,
		"byteOffset":0,
		"min":[0],
		"max":[1847]
	},
	{
		"bufferView":3,
		"type":"VEC3",
		"componentType":5126,
		"count":1848,
		"byteOffset":0,
		"min":[-394.330810546875,
		-192.83058166503907,
		-100.1851577758789],
		"max":[408.2048645019531,
		207.95654296875,
		-0.1851540058851242]
	},
	{
		"bufferView":3,
		"type":"VEC3",
		"componentType":5126,
		"count":1848,
		"byteOffset":12,
		"min":[-0.9999861121177673,
		-0.9999934434890747,
		0.0],
		"max":[0.9999861121177673,
		0.9999933838844299,
		0.0]
	},
	{
		"bufferView":3,
		"type":"VEC2",
		"componentType":5126,
		"count":1848,
		"byteOffset":24,
		"min":[0.0,
		0.0],
		"max":[1.0,
		1.0]
	},
	{
		"bufferView":4,
		"type":"SCALAR",
		"componentType":5123,
		"count":16362,
		"byteOffset":0,
		"min":[0],
		"max":[3695]
	},
	{
		"bufferView":5,
		"type":"VEC3",
		"componentType":5126,
		"count":3696,
		"byteOffset":0,
		"min":[-381.124267578125,
		-193.1669464111328,
		0.0],
		"max":[421.4114074707031,
		207.6201629638672,
		2.0]
	},
	{
		"bufferView":5,
		"type":"VEC3",
		"componentType":5126,
		"count":3696,
		"byteOffset":12,
		"min":[-0.9659065008163452,
		-0.9659002423286438,
		-0.9659257531166077],
		"max":[0.9659063816070557,
		0.9659157991409302,
		0.9659342169761658]
	},
	{
		"bufferView":5,
		"type":"VEC2",
		"componentType":5126,
		"count":3696,
		"byteOffset":24,
		"min":[0.0,
		0.0],
		"max":[1.0,
		1.0]
	},
	{
		"bufferView":6,
		"type":"SCALAR",
		"componentType":5123,
		"count":15123,
		"byteOffset":0,
		"min":[0],
		"max":[2974]
	},
	{
		"bufferView":7,
		"type":"VEC3",
		"componentType":5126,
		"count":2975,
		"byteOffset":0,
		"min":[-379.1241149902344,
		-191.1668701171875,
		2.0],
		"max":[419.4112854003906,
		205.62014770507813,
		2.0]
	},
	{
		"bufferView":7,
		"type":"VEC3",
		"componentType":5126,
		"count":2975,
		"byteOffset":12,
		"min":[0.0,
		0.0,
		1.0],
		"max":[0.0,
		0.0,
		1.0]
	},
	{
		"bufferView":7,
		"type":"VEC2",
		"componentType":5126,
		"count":2975,
		"byteOffset":24,
		"min":[0.0,
		0.0],
		"max":[1.0,
		0.4968934655189514]
	},
	{
		"bufferView":8,
		"type":"SCALAR",
		"componentType":5123,
		"count":16362,
		"byteOffset":0,
		"min":[0],
		"max":[3695]
	},
	{
		"bufferView":9,
		"type":"VEC3",
		"componentType":5126,
		"count":3696,
		"byteOffset":0,
		"min":[-381.124267578125,
		-193.1669464111328,
		-102.0],
		"max":[421.4114074707031,
		207.6201629638672,
		-100.0]
	},
	{
		"bufferView":9,
		"type":"VEC3",
		"componentType":5126,
		"count":3696,
		"byteOffset":12,
		"min":[-0.9659065008163452,
		-0.9659002423286438,
		-0.965933620929718],
		"max":[0.9659063816070557,
		0.9659157991409302,
		0.9659253358840942]
	},
	{
		"bufferView":9,
		"type":"VEC2",
		"componentType":5126,
		"count":3696,
		"byteOffset":24,
		"min":[0.0,
		0.0],
		"max":[1.0,
		1.0]
	},
	{
		"bufferView":10,
		"type":"SCALAR",
		"componentType":5123,
		"count":15105,
		"byteOffset":0,
		"min":[0],
		"max":[2971]
	},
	{
		"bufferView":11,
		"type":"VEC3",
		"componentType":5126,
		"count":2972,
		"byteOffset":0,
		"min":[-379.1241149902344,
		-191.1668701171875,
		-102.0],
		"max":[419.4112854003906,
		205.62014770507813,
		-102.0]
	},
	{
		"bufferView":11,
		"type":"VEC3",
		"componentType":5126,
		"count":2972,
		"byteOffset":12,
		"min":[0.0,
		0.0,
		-1.0],
		"max":[0.0,
		0.0,
		-1.0]
	},
	{
		"bufferView":11,
		"type":"VEC2",
		"componentType":5126,
		"count":2972,
		"byteOffset":24,
		"min":[0.0,
		0.0],
		"max":[1.0,
		0.4968934655189514]
	}],
	"bufferViews":[{
		"buffer":0,
		"byteOffset":0,
		"byteLength":12600,
		"target":34963
	},
	{
		"buffer":0,
		"byteOffset":12600,
		"byteLength":67520,
		"target":34962,
		"byteStride":32
	},
	{
		"buffer":1,
		"byteOffset":0,
		"byteLength":10908,
		"target":34963
	},
	{
		"buffer":1,
		"byteOffset":10908,
		"byteLength":59136,
		"target":34962,
		"byteStride":32
	},
	{
		"buffer":2,
		"byteOffset":0,
		"byteLength":32724,
		"target":34963
	},
	{
		"buffer":2,
		"byteOffset":32724,
		"byteLength":118272,
		"target":34962,
		"byteStride":32
	},
	{
		"buffer":3,
		"byteOffset":0,
		"byteLength":30246,
		"target":34963
	},
	{
		"buffer":3,
		"byteOffset":30248,
		"byteLength":95200,
		"target":34962,
		"byteStride":32
	},
	{
		"buffer":4,
		"byteOffset":0,
		"byteLength":32724,
		"target":34963
	},
	{
		"buffer":4,
		"byteOffset":32724,
		"byteLength":118272,
		"target":34962,
		"byteStride":32
	},
	{
		"buffer":5,
		"byteOffset":0,
		"byteLength":30210,
		"target":34963
	},
	{
		"buffer":5,
		"byteOffset":30212,
		"byteLength":95104,
		"target":34962,
		"byteStride":32
	}],
	"buffers":[{
		"uri":"data:application/octet-stream;base64,",
		"byteLength":80120
	},
	{
		"uri":"data:application/octet-stream;base64,",
		"byteLength":70044
	},
	{
		"uri":"data:application/octet-stream;base64,",
		"byteLength":150996
	},
	{
		"uri":"data:application/octet-stream;base64,",
		"byteLength":125448
	},
	{
		"uri":"data:application/octet-stream;base64,",
		"byteLength":150996
	},
	{
		"uri":"data:application/octet-stream;base64,",
		"byteLength":125316
	}],
	"materials":[{
		"pbrMetallicRoughness":{
			"baseColorFactor":[0.0,
			0.0,
			0.0,
			1.0],
			"metallicFactor":0.0,
			"roughnessFactor":0.5
		},
		"emissiveFactor":[0.0,
		0.0,
		0.0],
		"alphaMode":"OPAQUE",
		"doubleSided":false,
		"name":"Mat.2"
	}]
}