{
	"asset":{
		"version":"2.0",
		"generator":"Created using the official Cinema 4D glTF Exporter 1.000x284978"
	},
	"scenes":[{
		"nodes":[0,
		1]
	}],
	"nodes":[{
		"name":"Extrude.2",
		"mesh":0
	},
	{
		"name":"Extrude",
		"translation":[-6.603274822235107,
		0.1681835949420929,
		-0.0925770029425621],
		"rotation":[0.0,
		0.0,
		0.0,
		-1.0],
		"scale":[1.0,
		1.0,
		1.0],
		"mesh":1
	}],
	"meshes":[{
		"name":"Extrude.2",
		"primitives":[{
			"attributes":{
				"POSITION":1,
				"NORMAL":2,
				"TEXCOORD_0":3
			},
			"indices":0
		}]
	},
	{
		"name":"Extrude",
		"primitives":[{
			"attributes":{
				"POSITION":5,
				"NORMAL":6,
				"TEXCOORD_0":7
			},
			"indices":4,
			"material":0
		}]
	}],
	"buffers":[{
		"uri":"data:application/octet-stream;base64,",
		"byteLength":80120
	},
	{
		"uri":"data:application/octet-stream;base64,",
		"byteLength":622604
	}],
	"bufferViews":[{
		"buffer":0,
		"byteOffset":0,
		"byteLength":12600,
		"target":34963
	},
	{
		"buffer":0,
		"byteOffset":12600,
		"byteLength":67520,
		"target":34962,
		"byteStride":32
	},
	{
		"buffer":1,
		"byteOffset":0,
		"byteLength":136812,
		"target":34963
	},
	{
		"buffer":1,
		"byteOffset":136812,
		"byteLength":485792,
		"target":34962,
		"byteStride":32
	}],
	"accessors":[{
		"bufferView":0,
		"type":"SCALAR",
		"componentType":5123,
		"count":6300,
		"byteOffset":0,
		"min":[0],
		"max":[2109]
	},
	{
		"bufferView":1,
		"type":"VEC3",
		"componentType":5126,
		"count":2110,
		"byteOffset":0,
		"min":[-392.3172912597656,
		-190.83863830566407,
		-20.18515396118164],
		"max":[406.2018737792969,
		205.96401977539063,
		-0.1851540058851242]
	},
	{
		"bufferView":1,
		"type":"VEC3",
		"componentType":5126,
		"count":2110,
		"byteOffset":12,
		"min":[-1.0,
		-0.9999992847442627,
		-1.0],
		"max":[0.9999984502792358,
		0.9999999403953552,
		1.0]
	},
	{
		"bufferView":1,
		"type":"VEC2",
		"componentType":5126,
		"count":2110,
		"byteOffset":24,
		"min":[0.0,
		0.0],
		"max":[1.0,
		1.0]
	},
	{
		"bufferView":2,
		"type":"SCALAR",
		"componentType":5123,
		"count":68406,
		"byteOffset":0,
		"min":[0],
		"max":[15180]
	},
	{
		"bufferView":3,
		"type":"VEC3",
		"componentType":5126,
		"count":15181,
		"byteOffset":0,
		"min":[-386.72747802734377,
		-191.9987335205078,
		-101.09257507324219],
		"max":[413.8080749511719,
		206.78834533691407,
		0.9074230194091797]
	},
	{
		"bufferView":3,
		"type":"VEC3",
		"componentType":5126,
		"count":15181,
		"byteOffset":12,
		"min":[-0.9999861121177673,
		-0.9999934434890747,
		-1.0],
		"max":[0.9999861121177673,
		0.9999933838844299,
		1.0]
	},
	{
		"bufferView":3,
		"type":"VEC2",
		"componentType":5126,
		"count":15181,
		"byteOffset":24,
		"min":[0.0,
		0.0],
		"max":[1.0,
		1.0]
	}],
	"materials":[{
		"pbrMetallicRoughness":{
			"baseColorFactor":[0.0,
			0.0,
			0.0,
			1.0],
			"metallicFactor":0.0,
			"roughnessFactor":0.5
		},
		"emissiveFactor":[0.0,
		0.0,
		0.0],
		"name":"Mat.2",
		"alphaMode":"OPAQUE",
		"doubleSided":false
	}]
}